<mxfile host="Electron" agent="Mozilla/5.0 (Windows NT 10.0; Win64; x64) AppleWebKit/537.36 (KHTML, like Gecko) draw.io/26.2.15 Chrome/134.0.6998.205 Electron/35.2.1 Safari/537.36" version="26.2.15">
  <diagram name="收藏日記" id="qaRuIA4g81x4aDUxpuM_">
    <mxGraphModel dx="766" dy="1174" grid="1" gridSize="10" guides="1" tooltips="1" connect="1" arrows="1" fold="1" page="1" pageScale="1" pageWidth="827" pageHeight="1169" math="0" shadow="0">
      <root>
        <mxCell id="0" />
        <mxCell id="1" parent="0" />
        <mxCell id="JQIcz9f72YQv7gDRNe6x-1" value="" style="ellipse;shape=startState;fillColor=#000000;strokeColor=#000000;" parent="1" vertex="1">
          <mxGeometry x="230" y="444" width="30" height="30" as="geometry" />
        </mxCell>
        <mxCell id="JQIcz9f72YQv7gDRNe6x-2" value="" style="edgeStyle=elbowEdgeStyle;elbow=horizontal;verticalAlign=bottom;endArrow=open;endSize=8;strokeColor=#000000;endFill=1;rounded=0;fillColor=#000000;" parent="1" source="JQIcz9f72YQv7gDRNe6x-1" edge="1">
          <mxGeometry x="100" y="40" as="geometry">
            <mxPoint x="245.64285714285734" y="514" as="targetPoint" />
          </mxGeometry>
        </mxCell>
        <mxCell id="JQIcz9f72YQv7gDRNe6x-3" value="" style="endArrow=open;strokeColor=#000000;endFill=1;rounded=0" parent="1" target="JQIcz9f72YQv7gDRNe6x-7" edge="1">
          <mxGeometry relative="1" as="geometry">
            <mxPoint x="245" y="556" as="sourcePoint" />
            <mxPoint x="244.75" y="616" as="targetPoint" />
          </mxGeometry>
        </mxCell>
        <mxCell id="JQIcz9f72YQv7gDRNe6x-4" value="使用者" style="swimlane;whiteSpace=wrap;startSize=30;fontSize=20;" parent="1" vertex="1">
          <mxGeometry x="130" y="410" width="270" height="720" as="geometry" />
        </mxCell>
        <mxCell id="JQIcz9f72YQv7gDRNe6x-6" value="" style="ellipse;html=1;shape=endState;fillColor=#000000;strokeColor=#000000;" parent="JQIcz9f72YQv7gDRNe6x-4" vertex="1">
          <mxGeometry x="100" y="640" width="30" height="30" as="geometry" />
        </mxCell>
        <mxCell id="JQIcz9f72YQv7gDRNe6x-25" style="edgeStyle=orthogonalEdgeStyle;rounded=0;orthogonalLoop=1;jettySize=auto;html=1;" parent="JQIcz9f72YQv7gDRNe6x-4" source="JQIcz9f72YQv7gDRNe6x-7" target="JQIcz9f72YQv7gDRNe6x-24" edge="1">
          <mxGeometry relative="1" as="geometry" />
        </mxCell>
        <mxCell id="JQIcz9f72YQv7gDRNe6x-7" value="點選日記列表" style="fontSize=20;" parent="JQIcz9f72YQv7gDRNe6x-4" vertex="1">
          <mxGeometry x="45" y="105" width="140" height="50" as="geometry" />
        </mxCell>
        <mxCell id="JQIcz9f72YQv7gDRNe6x-24" value="點選想收藏的日記" style="fontSize=20;" parent="JQIcz9f72YQv7gDRNe6x-4" vertex="1">
          <mxGeometry x="27.5" y="200" width="175" height="50" as="geometry" />
        </mxCell>
        <mxCell id="JQIcz9f72YQv7gDRNe6x-27" value="點擊收藏按鈕" style="fontSize=20;" parent="JQIcz9f72YQv7gDRNe6x-4" vertex="1">
          <mxGeometry x="50" y="280" width="130" height="50" as="geometry" />
        </mxCell>
        <mxCell id="JQIcz9f72YQv7gDRNe6x-8" value="系統" style="swimlane;whiteSpace=wrap;startSize=30;fontSize=20;" parent="1" vertex="1">
          <mxGeometry x="400" y="410" width="500" height="720" as="geometry" />
        </mxCell>
        <mxCell id="JQIcz9f72YQv7gDRNe6x-33" style="edgeStyle=orthogonalEdgeStyle;rounded=0;orthogonalLoop=1;jettySize=auto;html=1;entryX=0.5;entryY=0;entryDx=0;entryDy=0;" parent="JQIcz9f72YQv7gDRNe6x-8" source="JQIcz9f72YQv7gDRNe6x-10" target="JQIcz9f72YQv7gDRNe6x-14" edge="1">
          <mxGeometry relative="1" as="geometry">
            <mxPoint x="157.8800000000001" y="420" as="targetPoint" />
          </mxGeometry>
        </mxCell>
        <mxCell id="JQIcz9f72YQv7gDRNe6x-10" value="查詢使用者&#xa;收藏清單是否收藏" style="fontSize=20;" parent="JQIcz9f72YQv7gDRNe6x-8" vertex="1">
          <mxGeometry x="72.88" y="339" width="170" height="50" as="geometry" />
        </mxCell>
        <mxCell id="JQIcz9f72YQv7gDRNe6x-41" style="edgeStyle=orthogonalEdgeStyle;rounded=0;orthogonalLoop=1;jettySize=auto;html=1;entryX=0;entryY=0.5;entryDx=0;entryDy=0;" parent="JQIcz9f72YQv7gDRNe6x-8" source="JQIcz9f72YQv7gDRNe6x-14" target="JQIcz9f72YQv7gDRNe6x-40" edge="1">
          <mxGeometry relative="1" as="geometry" />
        </mxCell>
        <mxCell id="JQIcz9f72YQv7gDRNe6x-44" style="edgeStyle=orthogonalEdgeStyle;rounded=0;orthogonalLoop=1;jettySize=auto;html=1;entryX=0.5;entryY=0;entryDx=0;entryDy=0;" parent="JQIcz9f72YQv7gDRNe6x-8" source="JQIcz9f72YQv7gDRNe6x-14" target="JQIcz9f72YQv7gDRNe6x-43" edge="1">
          <mxGeometry relative="1" as="geometry" />
        </mxCell>
        <mxCell id="JQIcz9f72YQv7gDRNe6x-14" value="&#xa;" style="rhombus;fillColor=#FFFFFF;strokeColor=#000000;" parent="JQIcz9f72YQv7gDRNe6x-8" vertex="1">
          <mxGeometry x="140.38" y="420" width="35" height="20" as="geometry" />
        </mxCell>
        <mxCell id="JQIcz9f72YQv7gDRNe6x-15" value="&lt;font style=&quot;font-size: 15px;&quot;&gt;[是]&lt;/font&gt;" style="whiteSpace=wrap;html=1;strokeColor=none;fillColor=none;" parent="JQIcz9f72YQv7gDRNe6x-8" vertex="1">
          <mxGeometry x="190" y="405" width="40" height="20" as="geometry" />
        </mxCell>
        <mxCell id="JQIcz9f72YQv7gDRNe6x-16" value="&lt;font style=&quot;font-size: 15px;&quot;&gt;[否]&lt;/font&gt;" style="whiteSpace=wrap;html=1;strokeColor=none;fillColor=none;" parent="JQIcz9f72YQv7gDRNe6x-8" vertex="1">
          <mxGeometry x="110" y="440" width="57.25" height="20" as="geometry" />
        </mxCell>
        <mxCell id="JQIcz9f72YQv7gDRNe6x-18" value="顯示日記內容&#xa;與情緒分析" style="fontSize=20;" parent="JQIcz9f72YQv7gDRNe6x-8" vertex="1">
          <mxGeometry x="92.88" y="200" width="130" height="50" as="geometry" />
        </mxCell>
        <mxCell id="JQIcz9f72YQv7gDRNe6x-40" value="顯示已收藏" style="fontSize=20;" parent="JQIcz9f72YQv7gDRNe6x-8" vertex="1">
          <mxGeometry x="257" y="405" width="170" height="50" as="geometry" />
        </mxCell>
        <mxCell id="JQIcz9f72YQv7gDRNe6x-46" style="edgeStyle=orthogonalEdgeStyle;rounded=0;orthogonalLoop=1;jettySize=auto;html=1;" parent="JQIcz9f72YQv7gDRNe6x-8" source="JQIcz9f72YQv7gDRNe6x-43" target="JQIcz9f72YQv7gDRNe6x-45" edge="1">
          <mxGeometry relative="1" as="geometry" />
        </mxCell>
        <mxCell id="JQIcz9f72YQv7gDRNe6x-43" value="新增收藏" style="fontSize=20;" parent="JQIcz9f72YQv7gDRNe6x-8" vertex="1">
          <mxGeometry x="72.88" y="470" width="170" height="50" as="geometry" />
        </mxCell>
        <mxCell id="JQIcz9f72YQv7gDRNe6x-45" value="顯示收藏成功" style="fontSize=20;" parent="JQIcz9f72YQv7gDRNe6x-8" vertex="1">
          <mxGeometry x="72.88" y="540" width="170" height="50" as="geometry" />
        </mxCell>
        <mxCell id="JQIcz9f72YQv7gDRNe6x-26" style="edgeStyle=orthogonalEdgeStyle;rounded=0;orthogonalLoop=1;jettySize=auto;html=1;entryX=0;entryY=0.5;entryDx=0;entryDy=0;" parent="1" source="JQIcz9f72YQv7gDRNe6x-24" target="JQIcz9f72YQv7gDRNe6x-18" edge="1">
          <mxGeometry relative="1" as="geometry" />
        </mxCell>
        <mxCell id="JQIcz9f72YQv7gDRNe6x-28" style="edgeStyle=orthogonalEdgeStyle;rounded=0;orthogonalLoop=1;jettySize=auto;html=1;entryX=1;entryY=0.5;entryDx=0;entryDy=0;" parent="1" source="JQIcz9f72YQv7gDRNe6x-18" target="JQIcz9f72YQv7gDRNe6x-27" edge="1">
          <mxGeometry relative="1" as="geometry">
            <Array as="points">
              <mxPoint x="550" y="715" />
            </Array>
          </mxGeometry>
        </mxCell>
        <mxCell id="JQIcz9f72YQv7gDRNe6x-30" style="edgeStyle=orthogonalEdgeStyle;rounded=0;orthogonalLoop=1;jettySize=auto;html=1;entryX=0;entryY=0.5;entryDx=0;entryDy=0;" parent="1" source="JQIcz9f72YQv7gDRNe6x-27" target="JQIcz9f72YQv7gDRNe6x-10" edge="1">
          <mxGeometry relative="1" as="geometry">
            <Array as="points">
              <mxPoint x="245" y="775" />
            </Array>
          </mxGeometry>
        </mxCell>
        <mxCell id="JQIcz9f72YQv7gDRNe6x-47" style="edgeStyle=orthogonalEdgeStyle;rounded=0;orthogonalLoop=1;jettySize=auto;html=1;entryX=0.5;entryY=0;entryDx=0;entryDy=0;" parent="1" source="JQIcz9f72YQv7gDRNe6x-45" target="JQIcz9f72YQv7gDRNe6x-6" edge="1">
          <mxGeometry relative="1" as="geometry" />
        </mxCell>
        <mxCell id="JQIcz9f72YQv7gDRNe6x-48" style="edgeStyle=orthogonalEdgeStyle;rounded=0;orthogonalLoop=1;jettySize=auto;html=1;entryX=1;entryY=0.5;entryDx=0;entryDy=0;" parent="1" source="JQIcz9f72YQv7gDRNe6x-40" target="JQIcz9f72YQv7gDRNe6x-6" edge="1">
          <mxGeometry relative="1" as="geometry">
            <Array as="points">
              <mxPoint x="740" y="1065" />
            </Array>
          </mxGeometry>
        </mxCell>
      </root>
    </mxGraphModel>
  </diagram>
</mxfile>
